<?xml version="1.0" standalone="no"?>
<!DOCTYPE svg PUBLIC "-//W3C//DTD SVG 20010904//EN"
 "http://www.w3.org/TR/2001/REC-SVG-20010904/DTD/svg10.dtd">
<svg version="1.0" xmlns="http://www.w3.org/2000/svg"
 width="512.000000pt" height="512.000000pt" viewBox="0 0 512.000000 512.000000"
 preserveAspectRatio="xMidYMid meet">
<metadata>
Created by potrace 1.11, written by Peter Selinger 2001-2013
</metadata>
<g transform="translate(0.000000,512.000000) scale(0.100000,-0.100000)"
fill="#000000" stroke="none">
<path d="M2015 4863 c-16 -8 -38 -22 -47 -31 -10 -8 -18 -12 -18 -8 0 4 -20
-7 -44 -24 -25 -16 -49 -30 -55 -30 -5 0 -16 -6 -23 -12 -14 -13 -24 -19 -96
-60 -149 -84 -263 -151 -268 -159 -3 -5 -10 -7 -15 -4 -5 4 -9 1 -9 -4 0 -6
-6 -11 -13 -11 -7 0 -29 -11 -50 -25 -20 -14 -37 -22 -37 -18 0 4 -4 3 -8 -3
-4 -7 -23 -21 -43 -32 -20 -11 -47 -26 -60 -34 -13 -7 -32 -19 -41 -27 -10 -8
-18 -11 -18 -7 0 4 -7 0 -16 -8 -8 -9 -20 -14 -25 -11 -5 4 -9 2 -9 -4 0 -9
-11 -16 -92 -58 -18 -9 -35 -19 -38 -23 -3 -4 -30 -20 -60 -36 -30 -16 -60
-33 -65 -39 -7 -6 -10 -120 -10 -325 1 -210 -3 -318 -10 -325 -9 -9 -28 -20
-100 -59 -10 -6 -25 -17 -33 -24 -7 -7 -18 -10 -23 -7 -5 4 -9 1 -9 -4 0 -6
-7 -11 -15 -11 -8 0 -15 -4 -15 -10 0 -5 -7 -10 -15 -10 -8 0 -15 -5 -15 -12
0 -6 -3 -9 -6 -6 -3 4 -22 -5 -41 -18 -20 -13 -42 -24 -49 -24 -8 0 -14 -4
-14 -9 0 -5 -19 -18 -42 -30 -24 -11 -88 -47 -143 -79 l-100 -58 0 -689 c0
-451 3 -692 10 -697 25 -20 85 -57 104 -63 12 -3 21 -11 21 -16 0 -5 5 -9 11
-9 6 0 37 -15 68 -34 61 -37 106 -63 161 -92 19 -11 37 -21 40 -24 3 -3 19
-12 35 -20 17 -8 32 -17 35 -20 3 -3 15 -11 27 -17 13 -7 33 -19 45 -25 13 -7
25 -15 28 -18 3 -3 14 -10 25 -16 19 -11 20 -22 20 -287 0 -170 4 -280 10
-286 13 -12 114 -70 137 -77 10 -4 18 -10 18 -15 0 -5 5 -9 11 -9 6 0 24 -9
40 -21 16 -11 29 -17 29 -12 0 4 4 3 8 -3 8 -12 113 -73 126 -72 5 0 12 -4 15
-9 8 -12 129 -83 142 -83 5 0 9 -4 9 -8 0 -4 12 -13 28 -20 32 -14 135 -73
142 -81 3 -3 21 -14 40 -24 59 -31 95 -52 100 -57 4 -4 29 -18 115 -64 11 -6
22 -13 25 -16 3 -3 25 -16 50 -29 25 -13 53 -31 63 -39 9 -8 17 -12 17 -8 0 4
15 -3 32 -16 18 -12 39 -21 47 -20 8 2 95 51 195 109 100 58 197 115 216 125
19 11 50 29 68 40 l34 21 41 -22 c23 -12 71 -40 107 -62 36 -21 75 -43 88 -49
12 -5 22 -14 22 -20 0 -5 3 -9 8 -8 14 4 52 -13 52 -23 0 -6 4 -7 10 -4 5 3
10 2 10 -4 0 -5 9 -13 20 -16 11 -3 52 -26 92 -50 72 -43 73 -43 103 -27 16 9
32 19 35 22 3 3 23 14 45 26 22 12 95 53 162 92 68 40 125 72 127 72 3 0 34
18 68 40 35 22 69 40 76 40 6 0 12 3 12 8 0 4 34 25 75 47 41 21 75 43 75 48
0 4 4 6 9 2 5 -3 12 -1 16 4 3 5 18 16 33 24 15 8 56 31 92 52 36 21 85 49
110 63 25 13 53 31 63 40 9 8 17 12 17 9 0 -3 35 16 78 42 l77 48 0 139 c0 76
4 144 7 150 4 6 4 14 0 18 -10 10 -9 256 1 256 4 0 32 15 62 34 29 19 56 32
59 29 3 -4 6 -2 6 4 0 6 23 21 50 34 28 13 50 27 50 31 0 5 5 8 11 8 6 0 23 9
39 20 15 11 29 17 32 14 3 -2 11 2 18 11 7 8 19 15 26 15 8 0 14 5 14 10 0 6
7 10 15 10 8 0 15 5 15 11 0 5 5 7 10 4 6 -3 10 -1 10 5 0 6 5 8 10 5 6 -3 10
-1 10 6 0 7 3 10 6 6 4 -3 12 -1 20 6 25 22 40 32 53 35 8 2 25 12 39 23 14
10 29 19 34 19 34 0 35 15 35 717 0 381 -4 690 -8 688 -4 -3 -9 -1 -11 3 -1 5
-23 20 -48 34 -103 58 -125 71 -135 78 -5 4 -30 19 -55 32 -53 29 -87 49 -192
111 -42 25 -79 43 -82 39 -3 -3 -6 -1 -6 4 0 5 -17 18 -37 29 -21 11 -43 24
-48 30 -12 11 -14 164 -2 182 4 6 4 14 0 16 -10 6 -10 288 0 303 3 6 3 14 0
18 -11 11 -11 106 -1 100 5 -4 4 3 -3 15 -7 11 -79 57 -159 103 -80 45 -148
87 -152 93 -5 6 -8 6 -8 0 0 -7 -3 -7 -8 0 -4 6 -27 21 -52 34 -25 13 -52 30
-61 37 -8 8 -21 14 -27 14 -6 0 -17 6 -24 13 -7 7 -24 18 -38 25 -14 7 -42 22
-62 35 -21 12 -61 35 -90 51 -29 16 -64 36 -78 46 -14 9 -40 23 -57 31 -18 8
-33 16 -33 20 0 3 -16 11 -35 19 -19 8 -35 17 -35 21 0 4 -8 9 -17 12 -10 4
-40 20 -68 37 -27 17 -58 33 -67 37 -10 3 -18 9 -18 14 0 5 -5 9 -10 9 -6 0
-29 12 -51 26 -49 30 -62 27 -173 -40 -42 -25 -80 -46 -86 -46 -5 0 -10 -5
-10 -11 0 -5 -4 -7 -10 -4 -5 3 -10 2 -10 -3 0 -4 -16 -14 -35 -22 -19 -8 -35
-17 -35 -20 0 -3 -22 -17 -50 -31 -27 -13 -50 -28 -50 -32 0 -5 -4 -5 -10 -2
-5 3 -10 2 -10 -3 0 -5 -8 -12 -17 -15 -10 -3 -30 -13 -44 -23 -18 -11 -33
-14 -45 -9 -11 5 -22 7 -26 7 -5 -1 -8 2 -8 7 0 5 -12 14 -27 20 -34 13 -65
32 -75 46 -4 6 -8 6 -8 2 0 -5 -12 1 -26 12 -15 12 -33 21 -40 21 -8 0 -14 4
-14 9 0 5 -8 11 -17 14 -10 4 -38 18 -63 33 -111 67 -197 114 -207 114 -4 -1
-21 -8 -38 -17z m85 -244 c3 -3 20 -12 38 -20 17 -8 32 -17 32 -21 0 -5 3 -7
8 -6 4 1 18 -5 32 -14 40 -25 221 -128 227 -128 2 0 11 -6 19 -14 12 -13 14
-145 14 -916 0 -496 2 -905 5 -910 7 -11 -32 -33 -45 -25 -6 3 -10 1 -10 -6 0
-7 -4 -8 -12 -2 -7 5 -25 8 -40 7 -16 -2 -28 2 -28 7 0 9 -36 46 -79 81 -45
37 -155 42 -218 10 -135 -70 -162 -254 -52 -359 93 -88 243 -77 329 24 23 26
31 29 88 29 l62 0 0 -828 c0 -456 2 -833 5 -839 8 -12 -37 -53 -88 -79 -76
-38 -102 -53 -107 -59 -3 -3 -19 -13 -35 -22 -17 -9 -63 -35 -103 -58 -73 -43
-103 -54 -112 -41 -5 8 -79 52 -120 72 -14 7 -27 15 -30 18 -3 3 -16 11 -30
18 -14 7 -43 24 -65 37 -22 13 -51 30 -65 38 -49 26 -75 42 -80 47 -3 3 -19
12 -35 21 -17 8 -106 60 -200 114 -93 54 -180 103 -192 109 -13 6 -23 15 -23
19 0 5 -4 5 -10 2 -5 -3 -10 -2 -10 2 0 5 -17 17 -37 26 -66 30 -73 40 -74 96
-1 28 1 54 4 58 4 3 2 14 -4 24 -5 11 -6 19 -2 19 9 0 9 98 0 106 -3 3 -2 18
2 32 5 15 5 36 1 47 -4 11 -5 24 -2 29 3 5 5 21 4 37 -1 24 7 31 60 58 63 33
87 38 104 21 13 -13 58 -23 105 -22 59 0 169 59 169 90 0 6 5 12 11 14 16 5
38 102 33 145 -3 21 -14 55 -25 77 -66 126 -241 156 -344 59 -40 -38 -78 -113
-69 -136 6 -17 -29 -44 -98 -76 l-47 -21 -66 40 c-36 22 -67 40 -69 40 -2 0
-34 18 -70 40 -36 22 -70 40 -76 40 -5 0 -10 4 -10 9 0 5 -8 11 -17 14 -10 3
-40 20 -68 36 -27 17 -57 34 -65 38 -61 28 -88 53 -92 87 -2 20 -2 36 2 36 3
0 5 82 5 182 l0 183 59 1 c55 0 61 -2 90 -34 144 -161 407 -51 390 162 -3 26
-10 58 -16 69 -7 12 -11 25 -10 29 4 15 -90 86 -126 95 -95 24 -180 -1 -239
-72 -26 -32 -42 -42 -59 -40 -13 1 -24 -2 -24 -6 0 -5 -11 -4 -25 1 -17 6 -25
6 -25 -1 0 -6 -4 -8 -9 -4 -6 3 -10 44 -10 90 0 47 -3 90 -6 95 -3 6 -3 10 2
10 8 0 7 148 -1 183 -2 9 -1 17 2 17 4 0 5 27 4 59 -3 53 -1 60 17 66 12 3 27
12 34 18 12 11 44 30 113 67 16 9 46 27 65 40 18 14 36 24 39 22 3 -1 12 4 20
11 8 7 20 14 25 16 6 2 40 21 77 42 36 21 71 39 76 39 6 0 13 7 16 16 4 9 9
14 13 11 3 -4 12 -2 19 3 8 8 27 2 66 -20 29 -16 63 -34 76 -40 12 -5 22 -16
22 -24 0 -7 8 -37 17 -66 36 -113 167 -177 282 -138 45 15 131 101 139 138 27
117 -19 224 -113 270 -60 29 -118 32 -180 9 -59 -22 -60 -22 -77 -6 -7 6 -35
24 -63 39 -27 15 -49 32 -48 38 2 5 -1 10 -6 10 -4 0 -5 18 -1 40 4 22 4 43
-1 45 -4 3 -4 18 1 33 4 16 4 36 -2 45 -6 11 -5 17 1 17 5 0 9 9 8 20 -1 11
-6 20 -12 20 -5 0 -3 5 5 10 8 5 10 10 4 10 -8 0 -9 13 -4 40 4 22 4 43 -1 46
-4 2 -4 16 1 29 7 18 6 25 -2 25 -9 0 -9 3 0 12 7 7 8 17 2 29 -6 10 -6 20 -2
23 5 3 7 19 6 35 -1 21 3 31 12 31 8 0 14 3 14 8 0 4 10 12 23 18 52 25 133
70 144 80 6 6 25 17 42 24 17 7 31 16 31 21 0 5 5 9 11 9 6 0 45 20 86 45 40
25 76 45 79 45 3 0 19 9 35 21 16 11 29 17 29 12 0 -4 4 -3 8 2 10 14 92 67
92 59 0 -4 7 0 16 7 20 16 35 25 105 63 30 16 56 31 59 35 3 4 16 12 30 19 14
6 32 16 40 22 8 5 42 25 75 44 49 28 62 32 80 22 11 -6 22 -14 25 -17z m1055
-7 c22 -13 48 -26 58 -29 9 -3 17 -10 17 -15 0 -5 5 -6 10 -3 6 3 10 3 10 -2
0 -4 21 -19 48 -33 26 -14 82 -46 125 -72 42 -26 77 -44 77 -41 0 3 8 -1 18
-9 9 -9 51 -35 92 -58 105 -59 140 -80 175 -101 17 -11 42 -24 58 -30 15 -6
27 -15 27 -19 0 -5 10 -12 22 -16 12 -3 51 -24 86 -46 36 -22 76 -44 89 -49
l23 -9 0 -261 c0 -292 3 -279 -73 -310 -17 -7 -35 -17 -38 -22 -11 -15 -42
-14 -78 4 -43 21 -133 19 -178 -4 -138 -72 -168 -250 -59 -357 58 -58 133 -77
225 -56 69 16 142 104 153 186 3 25 56 72 71 63 4 -2 7 1 7 6 0 6 9 11 21 11
11 0 18 4 15 9 -12 19 38 19 72 -1 21 -12 57 -32 82 -46 25 -14 62 -36 82 -49
21 -12 40 -23 44 -23 3 0 26 -13 51 -30 24 -16 46 -30 49 -30 11 0 165 -94
176 -107 15 -19 19 -43 7 -43 -6 0 -5 -8 1 -20 6 -11 7 -20 2 -20 -10 0 -9
-36 1 -46 4 -4 2 -13 -4 -21 -6 -7 -8 -13 -3 -13 5 0 9 -11 9 -25 0 -14 -4
-25 -8 -25 -5 0 -5 -5 -1 -12 11 -17 11 -58 1 -58 -4 0 -3 -9 3 -20 6 -11 7
-20 2 -20 -10 0 -9 -36 1 -46 4 -4 2 -13 -4 -21 -9 -9 -8 -13 0 -13 9 0 9 -5
1 -20 -8 -15 -8 -20 1 -20 8 0 8 -4 -1 -15 -8 -10 -9 -15 -2 -15 18 0 2 -28
-19 -33 -10 -3 -19 -2 -19 2 0 4 -14 7 -31 6 -24 -2 -40 8 -82 49 -59 58 -104
76 -177 71 -60 -5 -100 -25 -146 -73 -79 -84 -75 -222 9 -304 91 -90 240 -83
327 15 26 30 34 33 83 32 31 0 59 -3 63 -7 4 -5 3 -8 -3 -8 -11 0 -11 -35 0
-46 4 -4 2 -13 -4 -21 -6 -7 -8 -13 -3 -13 5 0 9 -11 9 -25 0 -14 -4 -25 -8
-25 -5 0 -5 -5 -1 -12 11 -17 11 -58 1 -58 -4 0 -3 -9 3 -20 6 -11 7 -20 2
-20 -10 0 -9 -36 1 -46 3 -4 2 -16 -4 -27 -8 -15 -8 -18 1 -12 9 6 9 2 1 -14
-7 -11 -8 -21 -3 -21 5 0 8 -10 6 -22 -1 -13 -3 -28 -3 -34 -1 -7 -9 -14 -18
-18 -10 -3 -34 -15 -53 -27 -19 -12 -60 -35 -90 -52 -30 -16 -62 -35 -70 -41
-8 -7 -26 -18 -40 -24 -14 -7 -34 -18 -45 -25 -88 -54 -148 -87 -156 -87 -5 0
-9 -5 -9 -12 0 -6 -3 -9 -6 -5 -4 3 -13 0 -21 -8 -15 -16 -29 -12 -113 27 -54
26 -51 23 -54 40 -1 7 -4 18 -7 23 -4 6 -9 22 -13 37 -13 54 -87 119 -156 135
-32 8 -101 3 -122 -8 -13 -7 -25 -12 -28 -11 -11 3 -71 -51 -89 -82 -67 -107
-24 -258 88 -312 20 -10 43 -20 51 -21 40 -9 104 -2 146 17 l46 21 63 -30 c57
-27 89 -51 68 -51 -4 0 -7 -94 -5 -210 2 -131 -1 -210 -7 -210 -5 0 -16 -6
-23 -12 -7 -7 -26 -20 -43 -28 -16 -8 -32 -18 -35 -21 -3 -3 -18 -12 -35 -21
-65 -33 -100 -53 -103 -60 -2 -5 -10 -8 -18 -8 -8 0 -14 -4 -14 -10 0 -5 -5
-10 -10 -10 -6 0 -51 -24 -101 -52 -49 -29 -116 -68 -147 -86 -31 -18 -65 -36
-74 -39 -10 -3 -18 -9 -18 -14 0 -5 -4 -9 -10 -9 -8 0 -73 -36 -160 -90 -8 -5
-37 -21 -65 -36 -27 -14 -62 -35 -77 -46 -39 -27 -66 -30 -88 -8 -10 10 -20
16 -23 14 -2 -2 -10 2 -17 11 -7 8 -16 15 -20 15 -4 0 -62 32 -128 70 -66 39
-125 70 -131 70 -6 0 -11 4 -11 8 0 5 -12 14 -26 21 -17 7 -24 17 -20 26 3 8
2 15 -2 15 -7 0 -7 24 1 102 2 21 -1 40 -7 42 -7 3 -8 7 -1 13 12 10 13 33 2
51 -5 6 -4 12 1 12 11 0 9 50 -2 68 -4 7 -3 12 2 12 13 0 10 33 -3 42 -6 5 -5
8 4 8 11 0 11 3 1 15 -7 8 -8 15 -3 15 5 0 9 9 9 20 0 11 -4 20 -9 20 -4 0 -5
6 -1 12 10 16 13 48 5 48 -6 0 -6 26 2 102 2 21 -1 40 -7 42 -7 3 -8 7 -1 13
12 10 13 33 2 51 -5 6 -4 12 1 12 11 0 9 50 -2 68 -4 7 -3 12 2 12 13 0 10 33
-3 42 -6 5 -5 8 4 8 11 0 11 3 1 15 -7 8 -8 15 -3 15 5 0 9 9 9 20 0 11 -4 20
-9 20 -4 0 -5 6 -1 12 10 16 13 48 5 48 -6 0 -6 26 2 102 2 21 -1 40 -7 42 -7
3 -8 7 -1 13 12 10 13 33 2 51 -5 6 -4 12 1 12 11 0 9 50 -2 68 -4 7 -3 12 2
12 13 0 10 33 -3 42 -6 5 -5 8 4 8 11 0 11 3 1 15 -7 8 -8 15 -3 15 5 0 9 9 9
20 0 11 -4 20 -9 20 -4 0 -5 6 -1 12 10 16 13 48 5 48 -6 0 -6 26 2 102 2 21
-1 40 -7 43 -8 3 -8 7 0 10 6 3 8 19 6 35 -2 17 0 30 4 31 5 1 33 2 62 3 48 2
55 0 80 -28 27 -31 72 -64 83 -62 3 1 12 -4 20 -10 20 -16 139 -11 169 6 168
98 165 324 -6 405 -89 42 -204 12 -271 -71 -15 -19 -37 -35 -48 -35 -57 1 -88
8 -96 24 -7 11 -7 17 1 17 12 0 9 22 -5 32 -6 5 -5 8 4 8 11 0 11 3 1 15 -7 8
-8 15 -3 15 5 0 9 9 9 20 0 11 -4 20 -9 20 -4 0 -5 6 -1 12 10 16 13 48 5 48
-6 0 -6 26 2 102 2 21 -1 40 -7 42 -7 3 -8 7 -1 13 12 10 13 33 2 51 -5 6 -4
12 1 12 11 0 9 50 -2 68 -4 7 -3 12 2 12 13 0 10 33 -3 42 -6 5 -5 8 4 8 11 0
11 3 1 15 -7 8 -8 15 -3 15 5 0 9 9 9 20 0 11 -4 20 -9 20 -4 0 -5 6 -1 12 10
16 13 48 5 48 -6 0 -6 26 2 102 2 21 -1 40 -7 42 -7 3 -8 7 -1 13 12 10 13 33
2 51 -5 6 -4 12 1 12 11 0 9 50 -2 68 -4 7 -3 12 2 12 13 0 10 33 -3 42 -6 5
-5 8 4 8 11 0 11 3 1 15 -7 8 -8 15 -3 15 5 0 9 9 9 20 0 11 -4 20 -9 20 -4 0
-5 6 -1 12 10 16 13 48 5 48 -6 0 -6 26 2 102 2 21 -1 40 -7 42 -7 3 -8 7 -1
13 12 10 13 33 2 51 -5 6 -4 12 1 12 11 0 9 50 -2 68 -4 7 -3 12 2 12 13 0 10
33 -3 42 -6 5 -5 8 4 8 11 0 11 3 1 15 -7 8 -8 15 -3 15 5 0 9 9 9 20 0 11 -4
20 -9 20 -4 0 -5 6 -1 12 10 16 13 48 5 48 -6 0 -6 26 2 103 2 20 -1 37 -5 37
-5 0 -6 6 -1 13 4 6 6 20 5 30 -2 9 5 20 15 24 10 3 25 11 33 18 8 7 40 25 70
41 30 16 57 32 60 36 3 4 17 12 30 17 14 6 34 17 45 23 98 63 168 99 175 90 3
-4 23 -17 45 -30z"/>
<path d="M1602 4075 c-29 -15 -61 -39 -70 -54 -9 -14 -19 -28 -23 -31 -16 -12
-31 -87 -27 -130 13 -133 134 -223 265 -198 45 8 49 7 71 -18 19 -21 21 -29
10 -35 -10 -7 -10 -9 2 -9 13 0 13 -1 0 -10 -12 -8 -13 -11 -1 -19 8 -5 9 -11
3 -15 -9 -5 -7 -66 3 -93 2 -7 -1 -13 -8 -13 -8 0 -8 -3 2 -9 11 -7 11 -9 0
-14 -12 -5 -12 -7 0 -15 8 -6 9 -12 3 -16 -9 -5 -7 -66 3 -93 2 -7 -1 -13 -8
-13 -8 0 -8 -3 2 -9 11 -7 11 -10 0 -15 -11 -5 -11 -7 -1 -12 6 -3 9 -10 6
-16 -11 -17 -10 -88 1 -92 6 -3 4 -5 -3 -5 -7 -1 -11 -5 -7 -10 3 -6 -5 -15
-17 -22 -13 -7 -25 -15 -28 -18 -3 -3 -92 -64 -197 -134 -175 -116 -222 -155
-207 -170 5 -4 8 -240 4 -262 -1 -6 -2 -14 -1 -20 1 -5 2 -50 1 -100 -1 -49
-1 -97 -1 -105 0 -8 0 -61 0 -116 0 -80 4 -105 16 -118 9 -9 20 -16 25 -16 7
0 59 -22 205 -90 22 -10 77 -35 122 -55 77 -35 109 -67 79 -79 -8 -3 -7 -7 3
-14 8 -6 9 -12 3 -16 -9 -5 -7 -66 3 -94 2 -6 -1 -12 -8 -12 -8 0 -8 -3 2 -9
11 -7 11 -9 0 -14 -12 -5 -12 -7 0 -15 8 -6 9 -12 3 -16 -9 -5 -7 -66 3 -93 2
-7 -1 -13 -8 -13 -8 0 -8 -3 2 -9 11 -7 11 -10 0 -15 -11 -5 -11 -7 -1 -12 6
-3 9 -11 5 -17 -4 -7 -6 -41 -5 -77 3 -62 2 -67 -28 -93 -17 -16 -39 -28 -48
-28 -140 5 -204 -26 -254 -123 -42 -81 -16 -210 54 -265 87 -70 215 -68 292 3
35 32 94 148 78 153 -4 2 -7 21 -6 43 0 36 7 48 60 100 l60 58 -1 106 c-1 69
3 106 9 106 8 0 8 3 0 8 -14 10 -14 304 1 314 7 5 7 8 -1 8 -6 0 -10 33 -9 93
1 126 2 125 -55 141 -3 0 -30 13 -60 28 -30 14 -82 38 -115 53 -33 14 -91 40
-130 57 -38 18 -74 37 -80 43 -8 9 -13 435 -6 500 1 6 18 21 39 35 20 14 39
27 42 30 3 3 43 30 90 60 47 30 87 57 90 60 3 3 30 21 60 40 30 18 60 38 65
44 6 6 22 19 36 28 24 15 26 22 24 72 -2 37 1 56 9 56 7 0 8 3 1 8 -15 9 -14
234 0 244 6 5 6 8 0 8 -14 0 -15 310 -1 310 6 0 5 4 -2 9 -8 4 -13 11 -13 15
3 19 -4 27 -54 65 -51 39 -54 44 -51 79 2 20 -5 59 -15 86 -33 89 -97 136
-192 143 -53 4 -70 0 -115 -22z"/>
<path d="M3419 4089 c-57 -9 -96 -28 -132 -67 -35 -36 -65 -117 -60 -158 3
-27 -2 -36 -39 -65 -71 -54 -73 -59 -73 -126 -1 -37 3 -63 10 -63 7 0 7 -3 0
-8 -14 -9 -14 -45 0 -54 6 -5 5 -8 -4 -8 -11 0 -11 -3 -1 -15 7 -8 8 -15 3
-15 -5 0 -9 -31 -9 -70 0 -41 5 -70 11 -70 7 0 7 -3 0 -8 -6 -4 -11 -16 -11
-27 0 -11 5 -23 11 -27 6 -5 5 -8 -4 -8 -11 0 -11 -3 -1 -15 7 -8 8 -15 3 -15
-12 0 -11 -163 2 -172 7 -5 6 -8 -1 -8 -19 0 -8 -69 14 -90 12 -11 24 -20 27
-20 9 0 79 -53 83 -63 2 -4 8 -5 13 -1 5 3 9 0 9 -5 0 -6 4 -11 9 -11 7 0 193
-121 226 -147 6 -5 21 -15 35 -24 l25 -16 0 -253 c0 -214 -2 -254 -15 -261
-17 -10 -193 -92 -200 -94 -12 -2 -120 -52 -175 -80 -62 -31 -74 -53 -53 -97
5 -10 5 -18 1 -18 -5 0 -9 -31 -9 -70 0 -41 5 -70 11 -70 7 0 7 -3 0 -8 -6 -4
-11 -16 -11 -27 0 -11 5 -23 11 -27 6 -5 5 -8 -4 -8 -11 0 -11 -3 -1 -15 7 -8
8 -15 3 -15 -5 0 -9 -31 -9 -70 0 -41 5 -70 11 -70 7 0 7 -3 0 -8 -14 -9 -14
-45 0 -54 6 -5 5 -8 -4 -8 -11 0 -11 -3 -1 -15 7 -8 8 -15 3 -15 -5 0 -9 -31
-9 -70 0 -38 4 -70 9 -70 5 0 4 -7 -3 -16 -12 -13 -3 -25 57 -87 70 -71 71
-73 69 -120 -6 -121 100 -230 223 -229 197 2 294 242 153 380 -56 54 -133 75
-209 58 -16 -3 -33 5 -58 28 -32 30 -34 37 -31 80 3 30 0 46 -7 46 -8 0 -8 3
-2 8 15 11 17 32 3 32 -8 0 -9 3 -3 8 13 9 14 65 0 74 -6 5 -6 8 0 8 6 0 10
16 10 35 0 19 -3 35 -8 35 -4 0 -5 5 -1 12 10 15 13 87 5 93 -6 3 -6 51 -1 65
2 3 3 19 4 35 1 26 8 34 62 60 33 17 80 39 105 49 24 11 78 35 119 54 95 43
123 55 133 56 23 3 27 56 27 401 l-1 370 -224 149 c-123 82 -222 153 -219 158
3 4 0 8 -6 8 -6 0 -8 5 -3 13 11 17 11 77 1 77 -5 0 -6 5 -2 12 9 15 13 79 5
93 -7 14 -9 45 -2 45 4 0 7 20 7 45 0 25 -4 45 -9 45 -4 0 -5 6 0 13 11 18 10
61 -2 69 -7 5 -7 8 1 8 10 0 11 57 0 67 -3 3 2 12 12 19 12 9 38 11 89 7 113
-9 189 32 234 126 29 62 23 154 -15 211 -29 45 -89 88 -131 96 -16 3 -31 6
-34 8 -3 1 -27 -1 -52 -5z"/>
</g>
</svg>
